<svg xmlns="http://www.w3.org/2000/svg" viewBox="0 0 512 512" class="main-menu-icon img-fixed" width="24" height="24" aria-label="Mechanics icon" role="img"><path fill="#a3a3a3" d="M479.5 297.5v-82l-50.3-8.4a156.5 156.5 0 0 0-16-38.3l30-40.8-57.7-58.8-42 29c-12-6.5-25-12.2-38.2-15.9L297 33h-82l-8.3 50.3a163 163 0 0 0-38.3 16l-41-29.1L68.8 128l29.9 41A184 184 0 0 0 82.8 208l-50.3 7.4v82l50.3 8.3a163 163 0 0 0 16 38.3l-30 41.7 57.6 57.6 42-29.7a184 184 0 0 0 39 15.8l8.4 49.5h82l8.3-50.4c13.1-3.7 26-9.3 38.3-15.8l41.9 29.8 57.6-57.8-29.7-42c6.4-12 12-24 15.8-38.1l49.3-7.4.2.2zM255.8 342c-47.5 0-85.7-38.3-85.7-85.7s39.1-85.7 85.7-85.7 85.8 38.3 85.8 85.7-38.3 85.7-85.8 85.7z"></path></svg>