<svg xmlns="http://www.w3.org/2000/svg" viewBox="0 0 512 512" class="main-menu-icon img-fixed" width="24" height="24" aria-label="Chat icon" role="img"><path fill="#a3a3a3" d="M36.5 95v241.5a44.5 44.5 0 0 0 43.9 43.9h58.5v73.1a7.3 7.3 0 0 0 12.8 5l71-78.1h208.9a44.5 44.5 0 0 0 43.9-44V95a44.5 44.5 0 0 0-43.9-43.9H80.4a44.5 44.5 0 0 0-43.9 44zm292.7 117.1a29.3 29.3 0 1 1 58.6 0 29.3 29.3 0 0 1-58.6 0zm-102.5 0a29.3 29.3 0 1 1 58.6 0 29.3 29.3 0 0 1-58.6 0zm-102.4 0a29.3 29.3 0 1 1 58.6 0 29.3 29.3 0 0 1-58.6 0z"></path></svg>